<svg width="91" height="33" viewBox="0 0 91 33" fill="none" xmlns="http://www.w3.org/2000/svg">
<rect x="1" y="4" width="27" height="27" rx="5" fill="#585858"/>
<rect x="1" y="1" width="27" height="27" rx="5" fill="#252525"/>
<path d="M1 6C1 3.23858 3.23858 1 6 1H10V10H1V6Z" fill="#FFC163" stroke="#CDCDCD" stroke-dasharray="2 2"/>
<rect x="10" y="1" width="9" height="9" fill="#7D63FF" stroke="#CDCDCD" stroke-dasharray="2 2"/>
<path d="M19 1H23C25.7614 1 28 3.23858 28 6V10H19V1Z" fill="#FF63DD" stroke="#CDCDCD" stroke-dasharray="2 2"/>
<rect x="1" y="10" width="9" height="9" fill="#63E2FF" stroke="#CDCDCD" stroke-dasharray="2 2"/>
<rect x="10" y="10" width="9" height="9" fill="#63FF85" stroke="#CDCDCD" stroke-dasharray="2 2"/>
<rect x="19" y="10" width="9" height="9" fill="#FF6366" stroke="#CDCDCD" stroke-dasharray="2 2"/>
<path d="M1 19H10V28H6C3.23858 28 1 25.7614 1 23V19Z" fill="#FF6388" stroke="#CDCDCD" stroke-dasharray="2 2"/>
<rect x="10" y="19" width="9" height="9" fill="#FFEF63" stroke="#CDCDCD" stroke-dasharray="2 2"/>
<path d="M19 19H28V23C28 25.7614 25.7614 28 23 28H19V19Z" fill="#B163FF" stroke="#CDCDCD" stroke-dasharray="2 2"/>
<path d="M45.352 9.52C45.96 10.08 46.408 10.752 46.696 11.536C46.984 12.304 47.096 13.072 47.032 13.84C46.968 14.576 46.736 15.256 46.336 15.88C45.936 16.488 45.328 16.952 44.512 17.272C43.872 17.544 43.24 17.736 42.616 17.848C41.992 17.96 41.304 18.048 40.552 18.112C40.216 18.144 39.928 18.168 39.688 18.184C39.464 18.184 39.2 18.192 38.896 18.208C38.832 18.208 38.72 18.208 38.56 18.208C38.416 18.208 38.312 18.216 38.248 18.232V23.2C38.2 23.504 38.136 23.816 38.056 24.136C37.992 24.456 37.808 24.704 37.504 24.88C37.328 24.976 37.112 25.032 36.856 25.048C36.6 25.064 36.368 25.056 36.16 25.024C35.936 24.992 35.744 24.936 35.584 24.856C35.44 24.76 35.32 24.6 35.224 24.376C35.16 24.232 35.096 24.072 35.032 23.896C34.984 23.704 34.96 23.472 34.96 23.2V9.928C34.96 9.816 34.968 9.712 34.984 9.616C35 9.52 35.016 9.424 35.032 9.328C35.064 9.248 35.088 9.16 35.104 9.064C35.12 8.968 35.144 8.88 35.176 8.8C35.208 8.72 35.24 8.648 35.272 8.584C35.32 8.52 35.376 8.464 35.44 8.416C35.52 8.336 35.64 8.264 35.8 8.2C35.976 8.136 36.232 8.104 36.568 8.104H36.616C37.112 8.072 37.664 8.048 38.272 8.032C38.88 8 39.384 8.008 39.784 8.056C40.008 8.088 40.216 8.112 40.408 8.128C40.6 8.128 40.784 8.136 40.96 8.152C41.152 8.168 41.344 8.184 41.536 8.2C41.728 8.216 41.92 8.24 42.112 8.272C42.272 8.304 42.416 8.328 42.544 8.344C42.688 8.36 42.832 8.384 42.976 8.416C43.104 8.448 43.24 8.48 43.384 8.512C43.544 8.544 43.688 8.6 43.816 8.68C44.152 8.776 44.432 8.896 44.656 9.04C44.88 9.184 45.112 9.344 45.352 9.52ZM43.912 13.48C43.928 13.096 43.848 12.76 43.672 12.472C43.512 12.184 43.28 11.944 42.976 11.752C42.672 11.56 42.328 11.408 41.944 11.296C41.56 11.184 41.176 11.104 40.792 11.056C40.696 11.056 40.56 11.056 40.384 11.056C40.224 11.04 40.048 11.032 39.856 11.032C39.664 11.016 39.48 11.008 39.304 11.008C39.144 10.992 39.016 10.984 38.92 10.984C38.84 10.968 38.744 10.96 38.632 10.96C38.52 10.96 38.392 10.96 38.248 10.96C38.264 11.456 38.272 11.936 38.272 12.4C38.272 12.848 38.272 13.336 38.272 13.864C38.256 14.152 38.248 14.44 38.248 14.728C38.248 15.016 38.248 15.296 38.248 15.568L39.736 15.544C40.12 15.544 40.544 15.52 41.008 15.472C41.472 15.424 41.912 15.328 42.328 15.184C42.744 15.04 43.096 14.832 43.384 14.56C43.688 14.288 43.864 13.928 43.912 13.48ZM50.0024 14.896C50.4824 14.656 50.9864 14.488 51.5144 14.392C52.0424 14.28 52.5624 14.256 53.0744 14.32C53.6024 14.368 54.1064 14.504 54.5864 14.728C55.0664 14.936 55.5144 15.24 55.9304 15.64C56.3464 16.056 56.6664 16.512 56.8904 17.008C57.1144 17.504 57.2744 18.056 57.3704 18.664C57.4344 19.08 57.5384 19.464 57.6824 19.816C57.8264 20.168 57.9784 20.52 58.1384 20.872C58.3144 21.224 58.4744 21.576 58.6184 21.928C58.7784 22.28 58.9064 22.648 59.0024 23.032C59.0824 23.4 59.0504 23.76 58.9064 24.112C58.7784 24.448 58.5064 24.656 58.0904 24.736C57.8504 24.784 57.6184 24.768 57.3944 24.688C57.1864 24.592 56.9944 24.464 56.8184 24.304C56.6424 24.128 56.4824 23.944 56.3384 23.752C56.2104 23.544 56.0904 23.352 55.9784 23.176C55.6104 23.656 55.2104 24.032 54.7784 24.304C54.3464 24.56 53.8264 24.728 53.2184 24.808C52.7064 24.872 52.2184 24.888 51.7544 24.856C51.2904 24.824 50.7944 24.736 50.2664 24.592C49.5784 24.416 49.0104 24.112 48.5624 23.68C48.1304 23.232 47.7944 22.72 47.5544 22.144C47.3304 21.552 47.2104 20.92 47.1944 20.248C47.1784 19.576 47.2584 18.912 47.4344 18.256C47.6584 17.392 47.9944 16.688 48.4424 16.144C48.8904 15.6 49.4104 15.184 50.0024 14.896ZM50.6024 17.704C50.3784 17.928 50.2024 18.192 50.0744 18.496C49.9464 18.8 49.8664 19.12 49.8344 19.456C49.8184 19.792 49.8504 20.128 49.9304 20.464C50.0104 20.8 50.1384 21.096 50.3144 21.352C50.4744 21.576 50.7464 21.768 51.1304 21.928C51.5144 22.072 51.9144 22.16 52.3304 22.192C52.8104 22.224 53.2264 22.096 53.5784 21.808C53.9464 21.52 54.2184 21.16 54.3944 20.728C54.5864 20.28 54.6744 19.808 54.6584 19.312C54.6424 18.8 54.5064 18.336 54.2504 17.92C54.0584 17.616 53.8024 17.392 53.4824 17.248C53.1784 17.104 52.8504 17.032 52.4984 17.032C52.1464 17.016 51.7944 17.072 51.4424 17.2C51.1064 17.312 50.8264 17.48 50.6024 17.704ZM68.4111 14.416C68.5391 14.72 68.5471 15.056 68.4351 15.424C68.3391 15.792 68.1551 16.032 67.8831 16.144C67.7391 16.208 67.5471 16.264 67.3071 16.312C67.0671 16.344 66.8031 16.376 66.5151 16.408C66.2431 16.44 65.9711 16.464 65.6991 16.48C65.4271 16.496 65.1951 16.504 65.0031 16.504C65.0191 16.984 65.0351 17.48 65.0511 17.992C65.0671 18.488 65.0831 18.976 65.0991 19.456C65.1151 19.936 65.1231 20.4 65.1231 20.848C65.1231 21.28 65.1151 21.672 65.0991 22.024C65.0991 22.264 65.0991 22.544 65.0991 22.864C65.0991 23.168 65.0751 23.464 65.0271 23.752C64.9951 24.04 64.9391 24.296 64.8591 24.52C64.7791 24.728 64.6591 24.864 64.4991 24.928C64.0031 25.136 63.5471 25.192 63.1311 25.096C62.7311 25.016 62.4431 24.848 62.2671 24.592C62.1391 24.384 62.0431 24.144 61.9791 23.872C61.9151 23.584 61.8671 23.296 61.8351 23.008C61.8191 22.704 61.8111 22.416 61.8111 22.144C61.8271 21.856 61.8351 21.608 61.8351 21.4C61.8511 20.728 61.8591 19.968 61.8591 19.12C61.8751 18.256 61.8831 17.392 61.8831 16.528H61.5231C61.3311 16.528 61.0831 16.528 60.7791 16.528C60.4911 16.512 60.1951 16.488 59.8911 16.456C59.6031 16.408 59.3311 16.352 59.0751 16.288C58.8191 16.208 58.6351 16.096 58.5231 15.952C58.3471 15.744 58.2351 15.52 58.1871 15.28C58.1551 15.04 58.1711 14.816 58.2351 14.608C58.3151 14.384 58.4351 14.192 58.5951 14.032C58.7551 13.856 58.9391 13.744 59.1471 13.696C59.4351 13.616 59.8431 13.576 60.3711 13.576C60.8991 13.56 61.3951 13.56 61.8591 13.576C61.8431 13.416 61.8351 13.264 61.8351 13.12C61.8351 12.96 61.8271 12.808 61.8111 12.664C61.7951 12.472 61.7871 12.232 61.7871 11.944C61.7871 11.64 61.8031 11.344 61.8351 11.056C61.8831 10.752 61.9551 10.472 62.0511 10.216C62.1471 9.944 62.2831 9.736 62.4591 9.592C62.6991 9.4 62.9391 9.296 63.1791 9.28C63.4351 9.248 63.6671 9.28 63.8751 9.376C64.0991 9.472 64.2831 9.616 64.4271 9.808C64.5871 9.984 64.6991 10.184 64.7631 10.408C64.8111 10.6 64.8511 10.832 64.8831 11.104C64.9151 11.36 64.9311 11.632 64.9311 11.92C64.9471 12.208 64.9551 12.496 64.9551 12.784C64.9551 13.072 64.9551 13.336 64.9551 13.576H65.1951C65.4351 13.576 65.7151 13.568 66.0351 13.552C66.3551 13.536 66.6671 13.544 66.9711 13.576C67.2911 13.608 67.5791 13.688 67.8351 13.816C68.0911 13.928 68.2831 14.128 68.4111 14.416ZM78.1771 15.76C78.3051 15.984 78.3691 16.224 78.3691 16.48C78.3851 16.736 78.3291 16.976 78.2011 17.2C78.0571 17.488 77.8491 17.688 77.5771 17.8C77.3211 17.896 77.0331 17.904 76.7131 17.824C76.5691 17.792 76.4411 17.736 76.3291 17.656C76.2171 17.576 76.0971 17.496 75.9691 17.416C75.8571 17.32 75.7211 17.232 75.5611 17.152C75.4171 17.072 75.2251 17.016 74.9851 16.984C74.7451 16.952 74.4811 16.952 74.1931 16.984C73.9211 17.016 73.6731 17.08 73.4491 17.176C73.0971 17.352 72.8171 17.624 72.6091 17.992C72.4011 18.344 72.2651 18.728 72.2011 19.144C72.1371 19.544 72.1451 19.952 72.2251 20.368C72.3211 20.784 72.4971 21.136 72.7531 21.424C72.9451 21.648 73.1931 21.832 73.4971 21.976C73.8171 22.12 74.1211 22.208 74.4091 22.24C74.6811 22.272 74.9531 22.272 75.2251 22.24C75.4971 22.192 75.7611 22.128 76.0171 22.048C76.2091 21.968 76.4251 21.864 76.6651 21.736C76.9051 21.592 77.1371 21.504 77.3611 21.472C77.6491 21.472 77.8731 21.552 78.0331 21.712C78.1931 21.856 78.3051 22.04 78.3691 22.264C78.4331 22.472 78.4411 22.696 78.3931 22.936C78.3611 23.176 78.2731 23.384 78.1291 23.56C77.9371 23.8 77.6651 24.032 77.3131 24.256C76.9611 24.464 76.6251 24.616 76.3051 24.712C75.9211 24.84 75.4891 24.912 75.0091 24.928C74.5451 24.944 74.1051 24.928 73.6891 24.88C73.4971 24.848 73.2971 24.808 73.0891 24.76C72.8811 24.712 72.6811 24.656 72.4891 24.592C71.7851 24.336 71.1931 23.976 70.7131 23.512C70.2491 23.032 69.8891 22.496 69.6331 21.904C69.3931 21.312 69.2571 20.68 69.2251 20.008C69.1931 19.336 69.2731 18.672 69.4651 18.016C69.6411 17.392 69.8571 16.864 70.1131 16.432C70.3851 16 70.6971 15.648 71.0491 15.376C71.4171 15.088 71.8251 14.864 72.2731 14.704C72.7211 14.528 73.2171 14.376 73.7611 14.248C74.3211 14.136 74.9131 14.136 75.5371 14.248C76.1611 14.36 76.7211 14.568 77.2171 14.872C77.6011 15.08 77.9211 15.376 78.1771 15.76ZM89.695 20.272C89.711 20.592 89.719 20.928 89.719 21.28C89.719 21.616 89.711 21.928 89.695 22.216C89.679 22.648 89.655 23.048 89.623 23.416C89.591 23.768 89.527 24.072 89.431 24.328C89.335 24.568 89.183 24.752 88.975 24.88C88.783 24.992 88.511 25.024 88.159 24.976C87.791 24.928 87.527 24.752 87.367 24.448C87.207 24.144 87.095 23.8 87.031 23.416C86.983 23.016 86.967 22.616 86.983 22.216C86.999 21.816 86.999 21.504 86.983 21.28C86.967 20.928 86.951 20.528 86.935 20.08C86.935 19.616 86.887 19.184 86.791 18.784C86.711 18.368 86.567 18.016 86.359 17.728C86.151 17.44 85.839 17.288 85.423 17.272C84.895 17.24 84.487 17.28 84.199 17.392C83.927 17.504 83.727 17.672 83.599 17.896C83.471 18.104 83.391 18.36 83.359 18.664C83.343 18.968 83.311 19.296 83.263 19.648L83.239 20.584V22.336C83.239 22.624 83.231 22.928 83.215 23.248C83.215 23.552 83.167 23.832 83.071 24.088C82.975 24.344 82.823 24.56 82.615 24.736C82.423 24.912 82.135 25 81.751 25C81.271 25 80.911 24.848 80.671 24.544C80.447 24.224 80.335 23.832 80.335 23.368V9.568C80.335 9.472 80.335 9.384 80.335 9.304C80.351 9.208 80.367 9.112 80.383 9.016C80.415 8.92 80.439 8.832 80.455 8.752C80.471 8.656 80.495 8.568 80.527 8.488C80.575 8.328 80.655 8.208 80.767 8.128C80.847 8.048 80.927 7.984 81.007 7.936C81.087 7.888 81.175 7.856 81.271 7.84C81.351 7.824 81.439 7.816 81.535 7.816C81.631 7.8 81.727 7.792 81.823 7.792C82.063 7.792 82.295 7.864 82.519 8.008C82.615 8.072 82.703 8.144 82.783 8.224C82.863 8.288 82.927 8.384 82.975 8.512C83.103 8.816 83.167 9.104 83.167 9.376C83.183 9.456 83.191 9.576 83.191 9.736C83.207 9.88 83.215 10.032 83.215 10.192C83.215 10.352 83.215 10.512 83.215 10.672C83.231 10.816 83.239 10.928 83.239 11.008V11.128C83.255 11.64 83.263 12.16 83.263 12.688C83.263 13.216 83.263 13.752 83.263 14.296V14.704C83.935 14.48 84.639 14.376 85.375 14.392C86.111 14.392 86.767 14.536 87.343 14.824C87.935 15.128 88.383 15.472 88.687 15.856C89.007 16.24 89.239 16.664 89.383 17.128C89.527 17.592 89.607 18.088 89.623 18.616C89.655 19.144 89.679 19.696 89.695 20.272Z" fill="black"/>
</svg>
